name D:\school\WTK\thesis\model\3dpredictsim\Results\batch_windlass\Pog_s1_tmt_aCst_d05_k500_WL20_ig24.mot
datacolumns 128
datarows 4
range 0.00000000 0.03165044
endheader
time	pelvis_tilt	pelvis_list	pelvis_rotation	pelvis_tx	pelvis_ty	pelvis_tz	hip_flexion_l	hip_adduction_l	hip_rotation_l	hip_flexion_r	hip_adduction_r	hip_rotation_r	knee_angle_l	knee_angle_r	ankle_angle_l	ankle_angle_r	subtalar_angle_l	subtalar_angle_r	tmt_angle_l	tmt_angle_r	mtp_angle_l	mtp_angle_r	lumbar_extension	lumbar_bending	lumbar_rotation	arm_flex_l	arm_add_l	arm_rot_l	arm_flex_r	arm_add_r	arm_rot_r	elbow_flex_l	elbow_flex_r	pro_sup_l	pro_sup_r	glut_med1_l/activation	glut_med2_l/activation	glut_med3_l/activation	glut_min1_l/activation	glut_min2_l/activation	glut_min3_l/activation	semimem_l/activation	semiten_l/activation	bifemlh_l/activation	bifemsh_l/activation	sar_l/activation	add_long_l/activation	add_brev_l/activation	add_mag1_l/activation	add_mag2_l/activation	add_mag3_l/activation	tfl_l/activation	pect_l/activation	grac_l/activation	glut_max1_l/activation	glut_max2_l/activation	glut_max3_l/activation	iliacus_l/activation	psoas_l/activation	quad_fem_l/activation	gem_l/activation	peri_l/activation	rect_fem_l/activation	vas_med_l/activation	vas_int_l/activation	vas_lat_l/activation	med_gas_l/activation	lat_gas_l/activation	soleus_l/activation	tib_post_l/activation	flex_dig_l/activation	flex_hal_l/activation	tib_ant_l/activation	per_brev_l/activation	per_long_l/activation	per_tert_l/activation	ext_dig_l/activation	ext_hal_l/activation	ercspn_l/activation	intobl_l/activation	extobl_l/activation	glut_med1_r/activation	glut_med2_r/activation	glut_med3_r/activation	glut_min1_r/activation	glut_min2_r/activation	glut_min3_r/activation	semimem_r/activation	semiten_r/activation	bifemlh_r/activation	bifemsh_r/activation	sar_r/activation	add_long_r/activation	add_brev_r/activation	add_mag1_r/activation	add_mag2_r/activation	add_mag3_r/activation	tfl_r/activation	pect_r/activation	grac_r/activation	glut_max1_r/activation	glut_max2_r/activation	glut_max3_r/activation	iliacus_r/activation	psoas_r/activation	quad_fem_r/activation	gem_r/activation	peri_r/activation	rect_fem_r/activation	vas_med_r/activation	vas_int_r/activation	vas_lat_r/activation	med_gas_r/activation	lat_gas_r/activation	soleus_r/activation	tib_post_r/activation	flex_dig_r/activation	flex_hal_r/activation	tib_ant_r/activation	per_brev_r/activation	per_long_r/activation	per_tert_r/activation	ext_dig_r/activation	ext_hal_r/activation	ercspn_r/activation	intobl_r/activation	extobl_r/activation	
          0.00000000	         -2.92697444	         -1.28074798	          5.57049025	          0.00000000	          0.85878420	         -0.00175412	        -17.95171841	         -1.02951047	          8.00668574	         31.64961499	          2.25026947	         -1.83825607	         -8.89602015	        -19.26173050	         -1.03248956	         -1.18545175	         10.42475324	         -2.03720614	         -3.41249311	         -0.03547021	         26.60711770	          0.43815544	         -0.97508163	         -0.56966286	         -1.59810769	          3.95809728	        -13.46020642	         14.27517321	         -8.23312149	        -13.60735173	          6.85784363	         33.36855847	         18.97836114	         86.51662706	         86.51662706	          0.32957093	          0.08775705	          0.05822789	          0.33256354	          0.19949540	          0.09426484	          0.05000742	          0.05000048	          0.05000037	          0.07393221	          0.09555413	          0.06418937	          0.05000060	          0.05000088	          0.05000248	          0.05000298	          0.26483361	          0.05000380	          0.05000118	          0.05000980	          0.05000567	          0.05000337	          0.32126781	          0.50519251	          0.05000043	          0.05000178	          0.05000032	          0.19790586	          0.05947712	          0.08087357	          0.08152168	          0.30228254	          0.38513915	          0.26126063	          0.20753856	          0.18707673	          0.27468983	          0.05000002	          0.08233335	          0.16880868	          0.05000013	          0.05000003	          0.05000013	          0.05000002	          0.05000014	          0.05000005	          0.05001917	          0.05000141	          0.05879183	          0.05000044	          0.05000061	          0.05000615	          0.05879810	          0.05882583	          0.06912954	          0.05004224	          0.05000107	          0.09021411	          0.13910655	          0.13831670	          0.13498502	          0.11793178	          0.05002071	          0.05001602	          0.06912810	          0.05879288	          0.07026867	          0.11596075	          0.06223009	          0.06378628	          0.20211906	          0.05000065	          0.05000102	          0.05000036	          0.10032530	          0.10834641	          0.08639886	          0.07989949	          0.07557280	          0.05000003	          0.05000030	          0.05879208	          0.05879177	          0.37825610	          0.31088326	          0.17764529	          0.18998109	          0.54368066	          0.12129366	          0.05610215	          0.12453992	          0.12445366	
          0.01055015	         -2.91858319	         -1.37873394	          5.84894728	          0.01597233	          0.85779002	         -0.00157687	        -17.76478459	         -1.33800930	          7.75565947	         31.10214026	          2.63972432	         -1.60882117	        -10.77562818	        -18.93503181	         -1.84730453	         -1.63247124	         11.44820558	         -2.71656333	         -4.11922835	         -0.05271712	         27.71746739	          0.59032357	         -0.78246083	         -0.33675829	         -1.66226965	          3.75167234	        -13.48124845	         14.66182363	         -9.19302634	        -13.60422046	          6.64577253	         34.27692424	         18.84849198	         86.51662706	         86.51662706	          0.30144896	          0.07463379	          0.05000007	          0.28283198	          0.16966272	          0.08016843	          0.05000251	          0.05000030	          0.05000023	          0.06287634	          0.08126531	          0.11575894	          0.13840234	          0.05000253	          0.05000322	          0.05000069	          0.22523029	          0.10379682	          0.05000133	          0.05000133	          0.05000079	          0.05000073	          0.27322517	          0.44589838	          0.05000012	          0.05000047	          0.05000043	          0.16831084	          0.13854057	          0.06878399	          0.10535345	          0.25707888	          0.32754504	          0.22219143	          0.17650310	          0.15910138	          0.23361258	          0.05000007	          0.07002123	          0.14356498	          0.05000041	          0.05000020	          0.05000033	          0.05000002	          0.05288865	          0.06263070	          0.05793158	          0.05879151	          0.05000028	          0.05879200	          0.05879189	          0.05001494	          0.05000566	          0.05002909	          0.05879205	          0.05000029	          0.05000131	          0.10262030	          0.21878319	          0.11763356	          0.14668330	          0.12916672	          0.05000023	          0.08095429	          0.05879121	          0.05000118	          0.05976074	          0.15014799	          0.05879179	          0.05424814	          0.31085423	          0.14265120	          0.09441381	          0.05751378	          0.18747750	          0.18749452	          0.15895008	          0.06795127	          0.06427168	          0.05757078	          0.05000005	          0.05000047	          0.05000071	          0.49729280	          0.26439359	          0.15108009	          0.48890312	          0.62222659	          0.25579160	          0.05000005	          0.10591610	          0.10584273	
          0.02110029	         -2.90551153	         -1.48180878	          6.10215173	          0.03222226	          0.85665711	         -0.00139724	        -17.49541300	         -1.63985129	          7.49170729	         30.42491593	          3.02174909	         -1.31576853	        -12.81521169	        -19.17301627	         -2.73925823	         -2.06965352	         12.41651751	         -3.43755206	         -4.79492439	         -0.11546552	         28.52315654	          0.77307893	         -0.56944357	         -0.09071257	         -1.71905769	          3.47631448	        -13.51375384	         15.00262262	        -10.16263950	        -13.60548216	          6.48302426	         35.17249827	         18.72163824	         86.51662706	         86.51662706	          0.25637006	          0.06347300	          0.05000100	          0.24053717	          0.14429124	          0.06818001	          0.05300837	          0.05000056	          0.05000133	          0.05347379	          0.06911315	          0.20825521	          0.35067519	          0.07418313	          0.05880375	          0.15438775	          0.19154926	          0.08827776	          0.05000214	          0.05002814	          0.05004620	          0.05878958	          0.23236684	          0.39988831	          0.05878572	          0.05002053	          0.05000031	          0.14314148	          0.11782533	          0.13214193	          0.13134351	          0.21863503	          0.27856362	          0.18896469	          0.15010868	          0.13530937	          0.19867801	          0.10380510	          0.05955028	          0.12537353	          0.05000020	          0.13042366	          0.05000174	          0.05310944	          0.05879206	          0.06912952	          0.05000006	          0.05000016	          0.10913374	          0.05000025	          0.05000021	          0.05000021	          0.05000008	          0.05000013	          0.05000031	          0.05000009	          0.05000115	          0.08727456	          0.18606659	          0.29961714	          0.23572774	          0.15104982	          0.05000124	          0.06905444	          0.05000660	          0.08475772	          0.11692060	          0.12769732	          0.05000040	          0.05000166	          0.31857082	          0.12131912	          0.08029518	          0.05879214	          0.27945165	          0.27012526	          0.23275768	          0.05963655	          0.05879223	          0.05000013	          0.05000012	          0.05877026	          0.05000144	          0.50115300	          0.22485603	          0.12848778	          0.41579362	          0.53770373	          0.21754042	          0.05000001	          0.09007731	          0.09001490	
          0.03165044	         -2.88960856	         -1.59199450	          6.32594811	          0.04862474	          0.85541036	         -0.00123250	        -17.13137523	         -1.92930844	          7.22289221	         29.53440180	          3.37231090	         -0.98395920	        -15.02897835	        -19.56855485	         -3.66322531	         -2.06509842	         13.29808781	         -4.19941692	         -5.34221267	         -0.46326965	         28.74724287	          0.84174746	         -0.34637388	          0.16992278	         -1.76499323	          3.14970352	        -13.55242586	         15.29783003	        -11.11005411	        -13.61705654	          6.40267327	         36.05094441	         18.57070226	         86.51662706	         86.51662706	          0.31587567	          0.05398121	          0.05000002	          0.28351203	          0.12271387	          0.05798436	          0.07355017	          0.05000049	          0.05000024	          0.05000061	          0.05879102	          0.18519614	          0.29823544	          0.06308993	          0.05001085	          0.13130067	          0.19115242	          0.07520614	          0.05000062	          0.05000074	          0.05000046	          0.05000036	          0.19761864	          0.38157974	          0.05000005	          0.05000021	          0.05000009	          0.12173597	          0.10020566	          0.11238133	          0.11170230	          0.18594012	          0.23690693	          0.16070671	          0.12766132	          0.11507524	          0.16896763	          0.17354150	          0.13666314	          0.13952558	          0.30683478	          0.22697150	          0.09883688	          0.08591958	          0.05000024	          0.05879184	          0.28407183	          0.32096317	          0.41618708	          0.29871553	          0.19139387	          0.30399396	          0.07890383	          0.10100851	          0.08381484	          0.06912983	          0.05000208	          0.07422350	          0.15824209	          0.25481226	          0.20047708	          0.14396647	          0.05000036	          0.05878934	          0.08979158	          0.22641690	          0.18517665	          0.11280027	          0.05000577	          0.05000065	          0.27093154	          0.10317730	          0.23281480	          0.05000033	          0.24968133	          0.27312062	          0.22863279	          0.05071848	          0.05000055	          0.05342241	          0.05050523	          0.05000045	          0.05000103	          0.58677202	          0.19123084	          0.10927359	          0.37578985	          0.58104381	          0.31266409	          0.05155666	          0.08134341	          0.07655398	
